solid exported
	facet normal 0.09801713515879878 0 0.9951847271814727
		outer loop
			vertex 0 280 3.799999952316284
			vertex 0 0 3.799999952316284
			vertex 0.7413432002067566 280 3.7269840240478516
		endloop
	endfacet
	facet normal 0.09801713515879878 0 0.9951847271814727
		outer loop
			vertex 0 0 3.799999952316284
			vertex 0.7413432002067566 0 3.7269840240478516
			vertex 0.7413432002067566 280 3.7269840240478516
		endloop
	endfacet
	facet normal 0.2902846595243503 0 0.9569403411105794
		outer loop
			vertex 0.7413432002067566 280 3.7269840240478516
			vertex 0.7413432002067566 0 3.7269840240478516
			vertex 1.4541970491409302 280 3.5107421875
		endloop
	endfacet
	facet normal 0.2902846595243503 0 0.9569403411105794
		outer loop
			vertex 0.7413432002067566 0 3.7269840240478516
			vertex 1.4541970491409302 0 3.5107421875
			vertex 1.4541970491409302 280 3.5107421875
		endloop
	endfacet
	facet normal 0.47139666906289984 0 0.8819213005684823
		outer loop
			vertex 1.4541970491409302 280 3.5107421875
			vertex 1.4541970491409302 0 3.5107421875
			vertex 2.1111669540405273 280 3.1595845222473145
		endloop
	endfacet
	facet normal 0.47139666906289984 0 0.8819213005684823
		outer loop
			vertex 1.4541970491409302 0 3.5107421875
			vertex 2.1111669540405273 0 3.1595845222473145
			vertex 2.1111669540405273 280 3.1595845222473145
		endloop
	endfacet
	facet normal 0.6343933406203376 0 0.7730104070299239
		outer loop
			vertex 2.1111669540405273 280 3.1595845222473145
			vertex 2.1111669540405273 0 3.1595845222473145
			vertex 2.6870057582855225 280 2.6870057582855225
		endloop
	endfacet
	facet normal 0.6343933406203376 0 0.7730104070299239
		outer loop
			vertex 2.1111669540405273 0 3.1595845222473145
			vertex 2.6870057582855225 0 2.6870057582855225
			vertex 2.6870057582855225 280 2.6870057582855225
		endloop
	endfacet
	facet normal 0.7730104070299239 0 0.6343933406203376
		outer loop
			vertex 2.6870057582855225 280 2.6870057582855225
			vertex 2.6870057582855225 0 2.6870057582855225
			vertex 3.1595845222473145 280 2.1111669540405273
		endloop
	endfacet
	facet normal 0.7730104070299239 0 0.6343933406203376
		outer loop
			vertex 2.6870057582855225 0 2.6870057582855225
			vertex 3.1595845222473145 0 2.1111669540405273
			vertex 3.1595845222473145 280 2.1111669540405273
		endloop
	endfacet
	facet normal 0.8819213005684823 0 0.47139666906289984
		outer loop
			vertex 3.1595845222473145 280 2.1111669540405273
			vertex 3.1595845222473145 0 2.1111669540405273
			vertex 3.5107421875 280 1.4541970491409302
		endloop
	endfacet
	facet normal 0.8819213005684823 0 0.47139666906289984
		outer loop
			vertex 3.1595845222473145 0 2.1111669540405273
			vertex 3.5107421875 0 1.4541970491409302
			vertex 3.5107421875 280 1.4541970491409302
		endloop
	endfacet
	facet normal 0.9569403411105794 0 0.2902846595243503
		outer loop
			vertex 3.5107421875 280 1.4541970491409302
			vertex 3.5107421875 0 1.4541970491409302
			vertex 3.7269840240478516 280 0.7413432002067566
		endloop
	endfacet
	facet normal 0.9569403411105794 0 0.2902846595243503
		outer loop
			vertex 3.5107421875 0 1.4541970491409302
			vertex 3.7269840240478516 0 0.7413432002067566
			vertex 3.7269840240478516 280 0.7413432002067566
		endloop
	endfacet
	facet normal 0.9951847271814724 0 0.0980171351587988
		outer loop
			vertex 3.7269840240478516 280 0.7413432002067566
			vertex 3.7269840240478516 0 0.7413432002067566
			vertex 3.799999952316284 280 2.326828887562921e-16
		endloop
	endfacet
	facet normal 0.9951847271814724 0 0.0980171351587988
		outer loop
			vertex 3.7269840240478516 0 0.7413432002067566
			vertex 3.799999952316284 0 2.326828887562921e-16
			vertex 3.799999952316284 280 2.326828887562921e-16
		endloop
	endfacet
	facet normal 0.9951847271814727 0 -0.09801713515879877
		outer loop
			vertex 3.799999952316284 280 2.326828887562921e-16
			vertex 3.799999952316284 0 2.326828887562921e-16
			vertex 3.7269840240478516 280 -0.7413432002067566
		endloop
	endfacet
	facet normal 0.9951847271814727 0 -0.09801713515879877
		outer loop
			vertex 3.799999952316284 0 2.326828887562921e-16
			vertex 3.7269840240478516 0 -0.7413432002067566
			vertex 3.7269840240478516 280 -0.7413432002067566
		endloop
	endfacet
	facet normal 0.9569403411105794 0 -0.2902846595243503
		outer loop
			vertex 3.7269840240478516 280 -0.7413432002067566
			vertex 3.7269840240478516 0 -0.7413432002067566
			vertex 3.5107421875 280 -1.4541970491409302
		endloop
	endfacet
	facet normal 0.9569403411105794 0 -0.2902846595243503
		outer loop
			vertex 3.7269840240478516 0 -0.7413432002067566
			vertex 3.5107421875 0 -1.4541970491409302
			vertex 3.5107421875 280 -1.4541970491409302
		endloop
	endfacet
	facet normal 0.8819213005684823 0 -0.47139666906289984
		outer loop
			vertex 3.5107421875 280 -1.4541970491409302
			vertex 3.5107421875 0 -1.4541970491409302
			vertex 3.1595845222473145 280 -2.1111669540405273
		endloop
	endfacet
	facet normal 0.8819213005684823 0 -0.47139666906289984
		outer loop
			vertex 3.5107421875 0 -1.4541970491409302
			vertex 3.1595845222473145 0 -2.1111669540405273
			vertex 3.1595845222473145 280 -2.1111669540405273
		endloop
	endfacet
	facet normal 0.7730104070299239 0 -0.6343933406203376
		outer loop
			vertex 3.1595845222473145 280 -2.1111669540405273
			vertex 3.1595845222473145 0 -2.1111669540405273
			vertex 2.6870057582855225 280 -2.6870057582855225
		endloop
	endfacet
	facet normal 0.7730104070299239 0 -0.6343933406203376
		outer loop
			vertex 3.1595845222473145 0 -2.1111669540405273
			vertex 2.6870057582855225 0 -2.6870057582855225
			vertex 2.6870057582855225 280 -2.6870057582855225
		endloop
	endfacet
	facet normal 0.6343933406203376 0 -0.7730104070299239
		outer loop
			vertex 2.6870057582855225 280 -2.6870057582855225
			vertex 2.6870057582855225 0 -2.6870057582855225
			vertex 2.1111669540405273 280 -3.1595845222473145
		endloop
	endfacet
	facet normal 0.6343933406203376 0 -0.7730104070299239
		outer loop
			vertex 2.6870057582855225 0 -2.6870057582855225
			vertex 2.1111669540405273 0 -3.1595845222473145
			vertex 2.1111669540405273 280 -3.1595845222473145
		endloop
	endfacet
	facet normal 0.47139666906289984 0 -0.8819213005684823
		outer loop
			vertex 2.1111669540405273 280 -3.1595845222473145
			vertex 2.1111669540405273 0 -3.1595845222473145
			vertex 1.4541970491409302 280 -3.5107421875
		endloop
	endfacet
	facet normal 0.47139666906289984 0 -0.8819213005684823
		outer loop
			vertex 2.1111669540405273 0 -3.1595845222473145
			vertex 1.4541970491409302 0 -3.5107421875
			vertex 1.4541970491409302 280 -3.5107421875
		endloop
	endfacet
	facet normal 0.2902846595243503 0 -0.9569403411105794
		outer loop
			vertex 1.4541970491409302 280 -3.5107421875
			vertex 1.4541970491409302 0 -3.5107421875
			vertex 0.7413432002067566 280 -3.7269840240478516
		endloop
	endfacet
	facet normal 0.2902846595243503 0 -0.9569403411105794
		outer loop
			vertex 1.4541970491409302 0 -3.5107421875
			vertex 0.7413432002067566 0 -3.7269840240478516
			vertex 0.7413432002067566 280 -3.7269840240478516
		endloop
	endfacet
	facet normal 0.09801713515879881 0 -0.9951847271814724
		outer loop
			vertex 0.7413432002067566 280 -3.7269840240478516
			vertex 0.7413432002067566 0 -3.7269840240478516
			vertex 4.653657775125842e-16 280 -3.799999952316284
		endloop
	endfacet
	facet normal 0.09801713515879881 0 -0.9951847271814724
		outer loop
			vertex 0.7413432002067566 0 -3.7269840240478516
			vertex 4.653657775125842e-16 0 -3.799999952316284
			vertex 4.653657775125842e-16 280 -3.799999952316284
		endloop
	endfacet
	facet normal -0.09801713515879874 0 -0.9951847271814727
		outer loop
			vertex 4.653657775125842e-16 280 -3.799999952316284
			vertex 4.653657775125842e-16 0 -3.799999952316284
			vertex -0.7413432002067566 280 -3.7269840240478516
		endloop
	endfacet
	facet normal -0.09801713515879874 0 -0.9951847271814727
		outer loop
			vertex 4.653657775125842e-16 0 -3.799999952316284
			vertex -0.7413432002067566 0 -3.7269840240478516
			vertex -0.7413432002067566 280 -3.7269840240478516
		endloop
	endfacet
	facet normal -0.2902846595243503 0 -0.9569403411105794
		outer loop
			vertex -0.7413432002067566 280 -3.7269840240478516
			vertex -0.7413432002067566 0 -3.7269840240478516
			vertex -1.4541970491409302 280 -3.5107421875
		endloop
	endfacet
	facet normal -0.2902846595243503 0 -0.9569403411105794
		outer loop
			vertex -0.7413432002067566 0 -3.7269840240478516
			vertex -1.4541970491409302 0 -3.5107421875
			vertex -1.4541970491409302 280 -3.5107421875
		endloop
	endfacet
	facet normal -0.47139666906289984 0 -0.8819213005684823
		outer loop
			vertex -1.4541970491409302 280 -3.5107421875
			vertex -1.4541970491409302 0 -3.5107421875
			vertex -2.1111669540405273 280 -3.1595845222473145
		endloop
	endfacet
	facet normal -0.47139666906289984 0 -0.8819213005684823
		outer loop
			vertex -1.4541970491409302 0 -3.5107421875
			vertex -2.1111669540405273 0 -3.1595845222473145
			vertex -2.1111669540405273 280 -3.1595845222473145
		endloop
	endfacet
	facet normal -0.6343933406203376 0 -0.7730104070299239
		outer loop
			vertex -2.1111669540405273 280 -3.1595845222473145
			vertex -2.1111669540405273 0 -3.1595845222473145
			vertex -2.6870057582855225 280 -2.6870057582855225
		endloop
	endfacet
	facet normal -0.6343933406203376 0 -0.7730104070299239
		outer loop
			vertex -2.1111669540405273 0 -3.1595845222473145
			vertex -2.6870057582855225 0 -2.6870057582855225
			vertex -2.6870057582855225 280 -2.6870057582855225
		endloop
	endfacet
	facet normal -0.7730104070299239 0 -0.6343933406203376
		outer loop
			vertex -2.6870057582855225 280 -2.6870057582855225
			vertex -2.6870057582855225 0 -2.6870057582855225
			vertex -3.1595845222473145 280 -2.1111669540405273
		endloop
	endfacet
	facet normal -0.7730104070299239 0 -0.6343933406203376
		outer loop
			vertex -2.6870057582855225 0 -2.6870057582855225
			vertex -3.1595845222473145 0 -2.1111669540405273
			vertex -3.1595845222473145 280 -2.1111669540405273
		endloop
	endfacet
	facet normal -0.8819213005684823 0 -0.47139666906289984
		outer loop
			vertex -3.1595845222473145 280 -2.1111669540405273
			vertex -3.1595845222473145 0 -2.1111669540405273
			vertex -3.5107421875 280 -1.4541970491409302
		endloop
	endfacet
	facet normal -0.8819213005684823 0 -0.47139666906289984
		outer loop
			vertex -3.1595845222473145 0 -2.1111669540405273
			vertex -3.5107421875 0 -1.4541970491409302
			vertex -3.5107421875 280 -1.4541970491409302
		endloop
	endfacet
	facet normal -0.9569403411105794 0 -0.2902846595243503
		outer loop
			vertex -3.5107421875 280 -1.4541970491409302
			vertex -3.5107421875 0 -1.4541970491409302
			vertex -3.7269840240478516 280 -0.7413432002067566
		endloop
	endfacet
	facet normal -0.9569403411105794 0 -0.2902846595243503
		outer loop
			vertex -3.5107421875 0 -1.4541970491409302
			vertex -3.7269840240478516 0 -0.7413432002067566
			vertex -3.7269840240478516 280 -0.7413432002067566
		endloop
	endfacet
	facet normal -0.9951847271814726 0 -0.09801713515879887
		outer loop
			vertex -3.7269840240478516 280 -0.7413432002067566
			vertex -3.7269840240478516 0 -0.7413432002067566
			vertex -3.799999952316284 280 -6.980486927386559e-16
		endloop
	endfacet
	facet normal -0.9951847271814726 0 -0.09801713515879887
		outer loop
			vertex -3.7269840240478516 0 -0.7413432002067566
			vertex -3.799999952316284 0 -6.980486927386559e-16
			vertex -3.799999952316284 280 -6.980486927386559e-16
		endloop
	endfacet
	facet normal -0.9951847271814727 0 0.0980171351587987
		outer loop
			vertex -3.799999952316284 280 -6.980486927386559e-16
			vertex -3.799999952316284 0 -6.980486927386559e-16
			vertex -3.7269840240478516 280 0.7413432002067566
		endloop
	endfacet
	facet normal -0.9951847271814727 0 0.0980171351587987
		outer loop
			vertex -3.799999952316284 0 -6.980486927386559e-16
			vertex -3.7269840240478516 0 0.7413432002067566
			vertex -3.7269840240478516 280 0.7413432002067566
		endloop
	endfacet
	facet normal -0.9569403411105794 0 0.2902846595243503
		outer loop
			vertex -3.7269840240478516 280 0.7413432002067566
			vertex -3.7269840240478516 0 0.7413432002067566
			vertex -3.5107421875 280 1.4541970491409302
		endloop
	endfacet
	facet normal -0.9569403411105794 0 0.2902846595243503
		outer loop
			vertex -3.7269840240478516 0 0.7413432002067566
			vertex -3.5107421875 0 1.4541970491409302
			vertex -3.5107421875 280 1.4541970491409302
		endloop
	endfacet
	facet normal -0.8819213005684823 0 0.47139666906289984
		outer loop
			vertex -3.5107421875 280 1.4541970491409302
			vertex -3.5107421875 0 1.4541970491409302
			vertex -3.1595845222473145 280 2.1111669540405273
		endloop
	endfacet
	facet normal -0.8819213005684823 0 0.47139666906289984
		outer loop
			vertex -3.5107421875 0 1.4541970491409302
			vertex -3.1595845222473145 0 2.1111669540405273
			vertex -3.1595845222473145 280 2.1111669540405273
		endloop
	endfacet
	facet normal -0.7730104070299239 0 0.6343933406203376
		outer loop
			vertex -3.1595845222473145 280 2.1111669540405273
			vertex -3.1595845222473145 0 2.1111669540405273
			vertex -2.6870057582855225 280 2.6870057582855225
		endloop
	endfacet
	facet normal -0.7730104070299239 0 0.6343933406203376
		outer loop
			vertex -3.1595845222473145 0 2.1111669540405273
			vertex -2.6870057582855225 0 2.6870057582855225
			vertex -2.6870057582855225 280 2.6870057582855225
		endloop
	endfacet
	facet normal -0.6343933406203376 0 0.7730104070299239
		outer loop
			vertex -2.6870057582855225 280 2.6870057582855225
			vertex -2.6870057582855225 0 2.6870057582855225
			vertex -2.1111669540405273 280 3.1595845222473145
		endloop
	endfacet
	facet normal -0.6343933406203376 0 0.7730104070299239
		outer loop
			vertex -2.6870057582855225 0 2.6870057582855225
			vertex -2.1111669540405273 0 3.1595845222473145
			vertex -2.1111669540405273 280 3.1595845222473145
		endloop
	endfacet
	facet normal -0.47139666906289984 0 0.8819213005684823
		outer loop
			vertex -2.1111669540405273 280 3.1595845222473145
			vertex -2.1111669540405273 0 3.1595845222473145
			vertex -1.4541970491409302 280 3.5107421875
		endloop
	endfacet
	facet normal -0.47139666906289984 0 0.8819213005684823
		outer loop
			vertex -2.1111669540405273 0 3.1595845222473145
			vertex -1.4541970491409302 0 3.5107421875
			vertex -1.4541970491409302 280 3.5107421875
		endloop
	endfacet
	facet normal -0.2902846595243503 0 0.9569403411105794
		outer loop
			vertex -1.4541970491409302 280 3.5107421875
			vertex -1.4541970491409302 0 3.5107421875
			vertex -0.7413432002067566 280 3.7269840240478516
		endloop
	endfacet
	facet normal -0.2902846595243503 0 0.9569403411105794
		outer loop
			vertex -1.4541970491409302 0 3.5107421875
			vertex -0.7413432002067566 0 3.7269840240478516
			vertex -0.7413432002067566 280 3.7269840240478516
		endloop
	endfacet
	facet normal -0.09801713515879888 0 0.9951847271814724
		outer loop
			vertex -0.7413432002067566 280 3.7269840240478516
			vertex -0.7413432002067566 0 3.7269840240478516
			vertex -9.307315550251684e-16 280 3.799999952316284
		endloop
	endfacet
	facet normal -0.09801713515879888 0 0.9951847271814724
		outer loop
			vertex -0.7413432002067566 0 3.7269840240478516
			vertex -9.307315550251684e-16 0 3.799999952316284
			vertex -9.307315550251684e-16 280 3.799999952316284
		endloop
	endfacet
	facet normal 0 1 0
		outer loop
			vertex 0 280 3.799999952316284
			vertex 0.7413432002067566 280 3.7269840240478516
			vertex 0 280 0
		endloop
	endfacet
	facet normal 0 1 0
		outer loop
			vertex 0.7413432002067566 280 3.7269840240478516
			vertex 1.4541970491409302 280 3.5107421875
			vertex 0 280 0
		endloop
	endfacet
	facet normal 0 1 0
		outer loop
			vertex 1.4541970491409302 280 3.5107421875
			vertex 2.1111669540405273 280 3.1595845222473145
			vertex 0 280 0
		endloop
	endfacet
	facet normal 0 1 0
		outer loop
			vertex 2.1111669540405273 280 3.1595845222473145
			vertex 2.6870057582855225 280 2.6870057582855225
			vertex 0 280 0
		endloop
	endfacet
	facet normal 0 1 0
		outer loop
			vertex 2.6870057582855225 280 2.6870057582855225
			vertex 3.1595845222473145 280 2.1111669540405273
			vertex 0 280 0
		endloop
	endfacet
	facet normal 0 1 0
		outer loop
			vertex 3.1595845222473145 280 2.1111669540405273
			vertex 3.5107421875 280 1.4541970491409302
			vertex 0 280 0
		endloop
	endfacet
	facet normal 0 1 0
		outer loop
			vertex 3.5107421875 280 1.4541970491409302
			vertex 3.7269840240478516 280 0.7413432002067566
			vertex 0 280 0
		endloop
	endfacet
	facet normal 0 1 0
		outer loop
			vertex 3.7269840240478516 280 0.7413432002067566
			vertex 3.799999952316284 280 2.326828887562921e-16
			vertex 0 280 0
		endloop
	endfacet
	facet normal 0 1 0
		outer loop
			vertex 3.799999952316284 280 2.326828887562921e-16
			vertex 3.7269840240478516 280 -0.7413432002067566
			vertex 0 280 0
		endloop
	endfacet
	facet normal 0 1 0
		outer loop
			vertex 3.7269840240478516 280 -0.7413432002067566
			vertex 3.5107421875 280 -1.4541970491409302
			vertex 0 280 0
		endloop
	endfacet
	facet normal 0 1 0
		outer loop
			vertex 3.5107421875 280 -1.4541970491409302
			vertex 3.1595845222473145 280 -2.1111669540405273
			vertex 0 280 0
		endloop
	endfacet
	facet normal 0 1 0
		outer loop
			vertex 3.1595845222473145 280 -2.1111669540405273
			vertex 2.6870057582855225 280 -2.6870057582855225
			vertex 0 280 0
		endloop
	endfacet
	facet normal 0 1 0
		outer loop
			vertex 2.6870057582855225 280 -2.6870057582855225
			vertex 2.1111669540405273 280 -3.1595845222473145
			vertex 0 280 0
		endloop
	endfacet
	facet normal 0 1 0
		outer loop
			vertex 2.1111669540405273 280 -3.1595845222473145
			vertex 1.4541970491409302 280 -3.5107421875
			vertex 0 280 0
		endloop
	endfacet
	facet normal 0 1 0
		outer loop
			vertex 1.4541970491409302 280 -3.5107421875
			vertex 0.7413432002067566 280 -3.7269840240478516
			vertex 0 280 0
		endloop
	endfacet
	facet normal 0 1 0
		outer loop
			vertex 0.7413432002067566 280 -3.7269840240478516
			vertex 4.653657775125842e-16 280 -3.799999952316284
			vertex 0 280 0
		endloop
	endfacet
	facet normal 0 1 0
		outer loop
			vertex 4.653657775125842e-16 280 -3.799999952316284
			vertex -0.7413432002067566 280 -3.7269840240478516
			vertex 0 280 0
		endloop
	endfacet
	facet normal 0 1 0
		outer loop
			vertex -0.7413432002067566 280 -3.7269840240478516
			vertex -1.4541970491409302 280 -3.5107421875
			vertex 0 280 0
		endloop
	endfacet
	facet normal 0 1 0
		outer loop
			vertex -1.4541970491409302 280 -3.5107421875
			vertex -2.1111669540405273 280 -3.1595845222473145
			vertex 0 280 0
		endloop
	endfacet
	facet normal 0 1 0
		outer loop
			vertex -2.1111669540405273 280 -3.1595845222473145
			vertex -2.6870057582855225 280 -2.6870057582855225
			vertex 0 280 0
		endloop
	endfacet
	facet normal 0 1 0
		outer loop
			vertex -2.6870057582855225 280 -2.6870057582855225
			vertex -3.1595845222473145 280 -2.1111669540405273
			vertex 0 280 0
		endloop
	endfacet
	facet normal 0 1 0
		outer loop
			vertex -3.1595845222473145 280 -2.1111669540405273
			vertex -3.5107421875 280 -1.4541970491409302
			vertex 0 280 0
		endloop
	endfacet
	facet normal 0 1 0
		outer loop
			vertex -3.5107421875 280 -1.4541970491409302
			vertex -3.7269840240478516 280 -0.7413432002067566
			vertex 0 280 0
		endloop
	endfacet
	facet normal 0 1 0
		outer loop
			vertex -3.7269840240478516 280 -0.7413432002067566
			vertex -3.799999952316284 280 -6.980486927386559e-16
			vertex 0 280 0
		endloop
	endfacet
	facet normal 0 1 0
		outer loop
			vertex -3.799999952316284 280 -6.980486927386559e-16
			vertex -3.7269840240478516 280 0.7413432002067566
			vertex 0 280 0
		endloop
	endfacet
	facet normal 0 1 0
		outer loop
			vertex -3.7269840240478516 280 0.7413432002067566
			vertex -3.5107421875 280 1.4541970491409302
			vertex 0 280 0
		endloop
	endfacet
	facet normal 0 1 0
		outer loop
			vertex -3.5107421875 280 1.4541970491409302
			vertex -3.1595845222473145 280 2.1111669540405273
			vertex 0 280 0
		endloop
	endfacet
	facet normal 0 1 0
		outer loop
			vertex -3.1595845222473145 280 2.1111669540405273
			vertex -2.6870057582855225 280 2.6870057582855225
			vertex 0 280 0
		endloop
	endfacet
	facet normal 0 1 0
		outer loop
			vertex -2.6870057582855225 280 2.6870057582855225
			vertex -2.1111669540405273 280 3.1595845222473145
			vertex 0 280 0
		endloop
	endfacet
	facet normal 0 1 0
		outer loop
			vertex -2.1111669540405273 280 3.1595845222473145
			vertex -1.4541970491409302 280 3.5107421875
			vertex 0 280 0
		endloop
	endfacet
	facet normal 0 1 0
		outer loop
			vertex -1.4541970491409302 280 3.5107421875
			vertex -0.7413432002067566 280 3.7269840240478516
			vertex 0 280 0
		endloop
	endfacet
	facet normal 0 1 0
		outer loop
			vertex -0.7413432002067566 280 3.7269840240478516
			vertex -9.307315550251684e-16 280 3.799999952316284
			vertex 0 280 0
		endloop
	endfacet
	facet normal 0 -1 0
		outer loop
			vertex 0.7413432002067566 0 3.7269840240478516
			vertex 0 0 3.799999952316284
			vertex 0 0 0
		endloop
	endfacet
	facet normal 0 -1 0
		outer loop
			vertex 1.4541970491409302 0 3.5107421875
			vertex 0.7413432002067566 0 3.7269840240478516
			vertex 0 0 0
		endloop
	endfacet
	facet normal 0 -1 0
		outer loop
			vertex 2.1111669540405273 0 3.1595845222473145
			vertex 1.4541970491409302 0 3.5107421875
			vertex 0 0 0
		endloop
	endfacet
	facet normal 0 -1 0
		outer loop
			vertex 2.6870057582855225 0 2.6870057582855225
			vertex 2.1111669540405273 0 3.1595845222473145
			vertex 0 0 0
		endloop
	endfacet
	facet normal 0 -1 0
		outer loop
			vertex 3.1595845222473145 0 2.1111669540405273
			vertex 2.6870057582855225 0 2.6870057582855225
			vertex 0 0 0
		endloop
	endfacet
	facet normal 0 -1 0
		outer loop
			vertex 3.5107421875 0 1.4541970491409302
			vertex 3.1595845222473145 0 2.1111669540405273
			vertex 0 0 0
		endloop
	endfacet
	facet normal 0 -1 0
		outer loop
			vertex 3.7269840240478516 0 0.7413432002067566
			vertex 3.5107421875 0 1.4541970491409302
			vertex 0 0 0
		endloop
	endfacet
	facet normal 0 -1 0
		outer loop
			vertex 3.799999952316284 0 2.326828887562921e-16
			vertex 3.7269840240478516 0 0.7413432002067566
			vertex 0 0 0
		endloop
	endfacet
	facet normal 0 -1 0
		outer loop
			vertex 3.7269840240478516 0 -0.7413432002067566
			vertex 3.799999952316284 0 2.326828887562921e-16
			vertex 0 0 0
		endloop
	endfacet
	facet normal 0 -1 0
		outer loop
			vertex 3.5107421875 0 -1.4541970491409302
			vertex 3.7269840240478516 0 -0.7413432002067566
			vertex 0 0 0
		endloop
	endfacet
	facet normal 0 -1 0
		outer loop
			vertex 3.1595845222473145 0 -2.1111669540405273
			vertex 3.5107421875 0 -1.4541970491409302
			vertex 0 0 0
		endloop
	endfacet
	facet normal 0 -1 0
		outer loop
			vertex 2.6870057582855225 0 -2.6870057582855225
			vertex 3.1595845222473145 0 -2.1111669540405273
			vertex 0 0 0
		endloop
	endfacet
	facet normal 0 -1 0
		outer loop
			vertex 2.1111669540405273 0 -3.1595845222473145
			vertex 2.6870057582855225 0 -2.6870057582855225
			vertex 0 0 0
		endloop
	endfacet
	facet normal 0 -1 0
		outer loop
			vertex 1.4541970491409302 0 -3.5107421875
			vertex 2.1111669540405273 0 -3.1595845222473145
			vertex 0 0 0
		endloop
	endfacet
	facet normal 0 -1 0
		outer loop
			vertex 0.7413432002067566 0 -3.7269840240478516
			vertex 1.4541970491409302 0 -3.5107421875
			vertex 0 0 0
		endloop
	endfacet
	facet normal 0 -1 0
		outer loop
			vertex 4.653657775125842e-16 0 -3.799999952316284
			vertex 0.7413432002067566 0 -3.7269840240478516
			vertex 0 0 0
		endloop
	endfacet
	facet normal 0 -1 0
		outer loop
			vertex -0.7413432002067566 0 -3.7269840240478516
			vertex 4.653657775125842e-16 0 -3.799999952316284
			vertex 0 0 0
		endloop
	endfacet
	facet normal 0 -1 0
		outer loop
			vertex -1.4541970491409302 0 -3.5107421875
			vertex -0.7413432002067566 0 -3.7269840240478516
			vertex 0 0 0
		endloop
	endfacet
	facet normal 0 -1 0
		outer loop
			vertex -2.1111669540405273 0 -3.1595845222473145
			vertex -1.4541970491409302 0 -3.5107421875
			vertex 0 0 0
		endloop
	endfacet
	facet normal 0 -1 0
		outer loop
			vertex -2.6870057582855225 0 -2.6870057582855225
			vertex -2.1111669540405273 0 -3.1595845222473145
			vertex 0 0 0
		endloop
	endfacet
	facet normal 0 -1 0
		outer loop
			vertex -3.1595845222473145 0 -2.1111669540405273
			vertex -2.6870057582855225 0 -2.6870057582855225
			vertex 0 0 0
		endloop
	endfacet
	facet normal 0 -1 0
		outer loop
			vertex -3.5107421875 0 -1.4541970491409302
			vertex -3.1595845222473145 0 -2.1111669540405273
			vertex 0 0 0
		endloop
	endfacet
	facet normal 0 -1 0
		outer loop
			vertex -3.7269840240478516 0 -0.7413432002067566
			vertex -3.5107421875 0 -1.4541970491409302
			vertex 0 0 0
		endloop
	endfacet
	facet normal 0 -1 0
		outer loop
			vertex -3.799999952316284 0 -6.980486927386559e-16
			vertex -3.7269840240478516 0 -0.7413432002067566
			vertex 0 0 0
		endloop
	endfacet
	facet normal 0 -1 0
		outer loop
			vertex -3.7269840240478516 0 0.7413432002067566
			vertex -3.799999952316284 0 -6.980486927386559e-16
			vertex 0 0 0
		endloop
	endfacet
	facet normal 0 -1 0
		outer loop
			vertex -3.5107421875 0 1.4541970491409302
			vertex -3.7269840240478516 0 0.7413432002067566
			vertex 0 0 0
		endloop
	endfacet
	facet normal 0 -1 0
		outer loop
			vertex -3.1595845222473145 0 2.1111669540405273
			vertex -3.5107421875 0 1.4541970491409302
			vertex 0 0 0
		endloop
	endfacet
	facet normal 0 -1 0
		outer loop
			vertex -2.6870057582855225 0 2.6870057582855225
			vertex -3.1595845222473145 0 2.1111669540405273
			vertex 0 0 0
		endloop
	endfacet
	facet normal 0 -1 0
		outer loop
			vertex -2.1111669540405273 0 3.1595845222473145
			vertex -2.6870057582855225 0 2.6870057582855225
			vertex 0 0 0
		endloop
	endfacet
	facet normal 0 -1 0
		outer loop
			vertex -1.4541970491409302 0 3.5107421875
			vertex -2.1111669540405273 0 3.1595845222473145
			vertex 0 0 0
		endloop
	endfacet
	facet normal 0 -1 0
		outer loop
			vertex -0.7413432002067566 0 3.7269840240478516
			vertex -1.4541970491409302 0 3.5107421875
			vertex 0 0 0
		endloop
	endfacet
	facet normal 0 -1 0
		outer loop
			vertex -9.307315550251684e-16 0 3.799999952316284
			vertex -0.7413432002067566 0 3.7269840240478516
			vertex 0 0 0
		endloop
	endfacet
endsolid exported
